<?xml version="1.0" standalone="no"?>
<!DOCTYPE svg PUBLIC "-//W3C//DTD SVG 20010904//EN"
 "http://www.w3.org/TR/2001/REC-SVG-20010904/DTD/svg10.dtd">
<svg version="1.0" xmlns="http://www.w3.org/2000/svg"
 width="1648.000000pt" height="1648.000000pt" viewBox="0 0 1648.000000 1648.000000"
 preserveAspectRatio="xMidYMid meet">
<metadata>
Created by potrace 1.14, written by Peter Selinger 2001-2017
</metadata>
<g transform="translate(0.000000,1648.000000) scale(0.100000,-0.100000)"
fill="#000000" stroke="none">
<path d="M30 8233 l0 -3754 1318 4 c724 2 1328 6 1342 9 14 4 57 9 95 13 79 7
131 13 160 19 11 2 45 8 75 12 30 4 57 8 60 9 3 1 21 5 40 10 19 4 46 9 60 11
14 1 25 3 25 4 0 1 9 3 20 5 107 21 492 145 540 173 6 4 15 7 20 8 14 2 284
136 331 164 114 68 219 135 222 142 2 4 8 8 13 8 5 0 31 17 58 38 26 20 58 44
71 52 12 8 30 22 40 30 9 8 44 37 76 64 88 74 394 387 394 402 0 3 19 29 43
57 24 29 59 75 78 102 19 28 37 52 42 53 4 2 7 8 7 13 0 5 15 31 33 57 42 60
127 208 127 221 0 5 3 11 7 13 15 6 119 229 173 368 18 47 36 94 41 105 23 55
95 291 103 340 1 6 4 15 8 20 3 6 9 30 14 55 4 25 8 47 9 50 11 46 31 150 41
210 48 310 57 451 57 920 0 311 -5 460 -17 585 -3 28 -8 77 -11 110 -11 110
-34 262 -42 285 -4 8 -5 18 -5 23 2 6 -6 45 -24 120 -2 9 -6 26 -9 38 -2 11
-7 30 -10 42 -3 12 -10 38 -15 57 -37 140 -109 355 -144 435 -8 17 -29 66 -47
110 -45 109 -171 354 -203 395 -7 8 -18 29 -26 45 -8 17 -17 32 -21 35 -3 3
-30 41 -59 85 -145 213 -336 425 -550 610 -91 78 -367 275 -386 275 -4 0 -15
6 -23 14 -43 36 -380 204 -446 222 -5 1 -39 14 -75 29 -35 15 -71 29 -80 31
-8 2 -40 12 -70 22 -126 44 -302 91 -395 105 -16 3 -37 7 -45 10 -14 5 -37 9
-142 22 -24 3 -54 8 -68 11 -14 3 -52 8 -85 10 -33 3 -78 7 -100 10 -22 3
-626 7 -1342 8 l-1303 2 0 -3753z m2555 2534 c124 -18 197 -31 245 -42 14 -4
34 -8 46 -10 35 -5 206 -66 257 -91 26 -13 47 -21 47 -17 0 3 7 -1 16 -8 9 -7
22 -14 30 -15 7 -1 27 -12 43 -23 16 -12 32 -21 35 -21 3 0 22 -11 43 -25 21
-14 46 -31 57 -38 85 -56 306 -263 306 -286 0 -5 3 -11 8 -13 36 -16 191 -273
256 -426 38 -91 64 -162 59 -162 -3 0 -1 -6 4 -12 8 -10 31 -80 39 -118 4 -22
17 -68 21 -80 4 -8 8 -26 10 -40 2 -14 8 -38 13 -55 5 -16 14 -59 20 -95 6
-36 13 -76 16 -90 2 -14 6 -36 8 -50 9 -47 27 -225 33 -325 14 -208 6 -979
-11 -1120 -2 -16 -7 -57 -11 -90 -9 -80 -13 -110 -15 -110 -1 0 -4 -18 -6 -40
-3 -22 -14 -80 -25 -130 -11 -49 -22 -99 -24 -110 -16 -71 -64 -224 -96 -302
-20 -50 -34 -94 -31 -97 3 -3 -1 -6 -8 -6 -7 0 -11 -3 -7 -6 7 -8 -109 -233
-154 -298 -19 -26 -38 -55 -44 -65 -5 -9 -12 -18 -15 -21 -3 -3 -23 -27 -44
-55 -100 -126 -249 -256 -400 -349 -123 -76 -361 -168 -491 -191 -16 -2 -57
-10 -90 -16 -141 -26 -257 -32 -695 -33 -228 -1 -424 0 -435 2 -20 3 -20 11
-18 2530 1 1390 2 2534 2 2542 1 14 56 15 489 13 268 -1 501 -4 517 -6z"/>
<path d="M6899 11971 c-1 -20 -1 -7473 0 -7484 1 -9 3215 -3 3281 6 25 4 74 9
110 12 102 9 122 12 165 18 22 4 58 9 80 12 23 3 52 8 65 11 14 2 36 7 50 9
14 2 32 6 40 8 8 2 42 9 75 16 134 28 297 78 435 132 47 18 87 34 90 34 3 1
35 16 71 33 36 18 71 32 77 32 6 0 12 4 14 8 2 4 39 28 83 51 44 24 82 47 85
51 3 3 20 15 38 25 17 11 32 23 32 27 0 4 5 8 11 8 17 0 155 117 242 204 80
82 217 255 217 275 0 6 5 11 10 11 6 0 10 7 10 15 0 8 4 15 8 15 5 0 19 24 33
53 13 28 26 54 29 57 34 33 128 295 168 470 34 143 46 227 57 410 11 160 11
175 1 188 -5 7 -5 12 1 12 5 0 8 17 6 38 -1 20 -5 75 -8 121 -3 46 -8 95 -10
110 -3 14 -8 37 -10 51 -2 14 -7 41 -10 60 -4 19 -8 40 -9 45 -1 6 -5 16 -9
23 -5 6 -6 12 -3 12 3 0 -1 18 -9 40 -8 22 -14 41 -13 43 2 4 -33 109 -54 162
-81 202 -194 379 -325 511 -61 61 -130 124 -163 147 -94 67 -225 148 -280 174
-111 53 -158 73 -173 73 -7 0 -17 3 -21 8 -4 4 -11 7 -14 8 -4 0 -14 3 -22 6
-8 3 -35 11 -60 18 l-45 13 35 12 c82 30 310 157 318 177 2 4 8 8 14 8 39 0
368 313 368 350 0 6 4 10 8 10 4 0 16 15 27 33 10 17 21 34 24 37 10 8 30 43
48 83 10 20 21 37 25 37 5 0 8 5 8 10 0 6 9 30 20 53 74 151 137 364 156 527
3 25 7 61 10 80 5 41 5 307 0 365 -4 46 -14 137 -20 180 -14 103 -65 302 -92
362 -8 17 -14 33 -14 36 0 2 -8 22 -17 43 -9 22 -17 41 -18 44 -1 3 -14 30
-29 60 -16 30 -34 65 -40 77 -6 13 -14 23 -18 23 -5 0 -8 6 -8 13 0 11 -54 91
-122 182 -43 57 -233 241 -298 288 -36 26 -69 51 -75 55 -74 57 -275 163 -430
227 -133 55 -343 120 -480 149 -16 3 -40 8 -52 11 -46 10 -101 21 -158 30 -16
3 -41 7 -55 10 -13 3 -40 7 -60 9 -167 22 -175 23 -290 31 -41 3 -97 8 -125
12 -27 3 -715 7 -1527 8 -1343 2 -1478 0 -1479 -14z m2886 -1205 c82 -8 257
-36 305 -49 197 -51 328 -116 427 -214 52 -51 113 -126 113 -139 0 -4 6 -15
13 -23 15 -17 64 -132 72 -166 3 -11 11 -47 20 -80 35 -141 38 -473 4 -536 -4
-9 -6 -18 -4 -21 11 -10 -70 -219 -87 -226 -5 -2 -8 -8 -8 -13 0 -17 -66 -109
-73 -102 -4 3 -7 1 -7 -6 0 -14 -119 -131 -133 -131 -4 0 -16 -8 -27 -17 -47
-45 -288 -144 -378 -157 -24 -3 -46 -8 -50 -10 -7 -4 -48 -10 -137 -21 -115
-14 -280 -18 -793 -19 -378 -1 -586 3 -590 9 -6 10 -11 1901 -5 1920 4 11
1230 12 1338 1z m250 -3000 c28 -3 61 -8 75 -11 13 -2 42 -7 65 -10 113 -17
282 -85 385 -156 88 -61 178 -155 219 -229 58 -107 112 -242 126 -317 2 -15 7
-37 9 -48 27 -137 29 -431 3 -540 -25 -102 -54 -193 -69 -210 -4 -5 -8 -17 -8
-27 0 -10 -4 -18 -10 -18 -5 0 -10 -5 -10 -10 0 -6 -16 -36 -36 -66 -68 -107
-159 -195 -279 -267 -67 -41 -160 -85 -194 -92 -9 -2 -29 -8 -44 -14 -50 -19
-220 -50 -317 -57 -108 -8 -1499 -12 -1501 -4 -5 24 -3 2076 3 2080 9 7 1521
4 1583 -4z"/>
<path d="M13567 8275 c-2 -5 -3 -266 -2 -580 l0 -570 48 0 c26 0 47 -2 47 -5
0 -3 11 -5 25 -5 14 0 25 3 25 7 0 4 10 4 23 -1 12 -5 32 -5 44 0 13 5 25 4
28 -1 3 -6 15 -6 30 0 14 5 25 6 25 2 0 -6 58 -7 151 -2 19 1 36 1 39 0 17 -6
52 -5 56 1 2 5 15 4 27 0 14 -5 30 -5 40 0 11 7 17 6 17 0 0 -6 11 -6 29 -1
15 4 34 4 42 0 7 -5 20 -5 29 0 11 6 21 5 28 -2 9 -9 12 -9 12 0 0 8 7 9 22 3
12 -4 37 -5 55 -1 18 5 35 4 38 -1 3 -4 17 -4 30 1 13 5 27 6 29 1 3 -4 26 -5
51 -1 25 4 48 3 51 -1 2 -5 15 -4 28 1 13 5 27 6 30 3 7 -7 164 -6 176 2 5 3
11 1 15 -5 4 -7 12 -7 24 0 10 5 21 7 25 3 9 -9 58 -10 84 -1 12 4 22 4 22 0
0 -9 47 -8 56 1 3 3 17 2 30 -3 16 -6 24 -6 24 1 0 6 6 6 18 0 10 -5 24 -6 32
-1 8 5 21 5 31 -1 11 -6 20 -5 24 1 3 5 15 6 28 1 14 -5 30 -5 40 0 10 6 17 6
17 1 0 -5 20 -6 45 -2 25 4 48 3 51 -1 2 -5 16 -4 29 1 14 5 25 6 25 2 0 -6
58 -7 151 -2 19 1 36 1 39 0 21 -7 40 -7 40 1 0 6 5 7 11 3 14 -8 166 -7 179
1 6 3 10 2 10 -4 0 -7 8 -7 25 -1 14 5 25 6 25 2 0 -5 23 -6 50 -2 28 4 53 3
56 -1 3 -5 16 -4 29 1 14 5 25 6 25 2 0 -6 58 -7 151 -2 19 1 36 1 39 0 17 -6
52 -5 56 1 2 5 15 4 28 -1 13 -4 29 -4 37 0 7 5 16 5 19 1 3 -5 15 -5 27 0
l22 8 -2 578 -2 578 -1452 0 c-969 0 -1454 -3 -1456 -10z"/>
</g>
</svg>
