<svg width="16" height="13" fill="none" xmlns="http://www.w3.org/2000/svg"><path d="M15.529 1.383c-.97-.413-1.94-.57-2.91-.57-3.08 0-6.159 1.582-9.238 1.582a7.5 7.5 0 01-2.316-.348.843.843 0 00-.259-.041.802.802 0 00-.806.808v8.055c0 .32.18.625.471.748.97.413 1.94.57 2.91.57 3.08 0 6.159-1.583 9.238-1.583.772 0 1.544.1 2.316.349a.844.844 0 00.259.04.8.8 0 00.806-.807V2.131a.81.81 0 00-.471-.748zM8 8.937c-1.105 0-2-1.091-2-2.437 0-1.346.896-2.438 2-2.438s2 1.092 2 2.438-.896 2.438-2 2.438z" fill="#434343"/></svg>